<mxfile host="app.diagrams.net" agent="Mozilla/5.0 (Windows NT 10.0; Win64; x64) AppleWebKit/537.36 (KHTML, like Gecko) Chrome/128.0.0.0 Safari/537.36" version="24.7.16">
  <diagram name="Page-1" id="wdwIuQdB5oTKPD_E_kBf">
    <mxGraphModel dx="1221" dy="772" grid="1" gridSize="10" guides="1" tooltips="1" connect="1" arrows="1" fold="1" page="1" pageScale="1" pageWidth="850" pageHeight="1100" math="0" shadow="0">
      <root>
        <mxCell id="0" />
        <mxCell id="1" parent="0" />
        <mxCell id="wTYuQ1-PZF-Odj23AbDm-1" value="Actor" style="shape=umlActor;verticalLabelPosition=bottom;verticalAlign=top;html=1;outlineConnect=0;" vertex="1" parent="1">
          <mxGeometry x="40" y="360" width="40" height="80" as="geometry" />
        </mxCell>
        <mxCell id="wTYuQ1-PZF-Odj23AbDm-2" value="Hosted Website&lt;div&gt;Welcome Page&lt;/div&gt;" style="html=1;whiteSpace=wrap;" vertex="1" parent="1">
          <mxGeometry x="140" y="375" width="120" height="50" as="geometry" />
        </mxCell>
        <mxCell id="wTYuQ1-PZF-Odj23AbDm-3" value="CSS &amp;amp; Javascript&lt;div&gt;Formatting&lt;/div&gt;" style="shape=hexagon;perimeter=hexagonPerimeter2;whiteSpace=wrap;html=1;fixedSize=1;" vertex="1" parent="1">
          <mxGeometry x="140" y="250" width="120" height="80" as="geometry" />
        </mxCell>
        <mxCell id="wTYuQ1-PZF-Odj23AbDm-5" value="" style="endArrow=classic;html=1;rounded=0;entryX=0.5;entryY=0;entryDx=0;entryDy=0;" edge="1" parent="1" target="wTYuQ1-PZF-Odj23AbDm-2">
          <mxGeometry width="50" height="50" relative="1" as="geometry">
            <mxPoint x="200" y="330" as="sourcePoint" />
            <mxPoint x="250" y="280" as="targetPoint" />
          </mxGeometry>
        </mxCell>
        <mxCell id="wTYuQ1-PZF-Odj23AbDm-6" value="" style="endArrow=classic;html=1;rounded=0;entryX=0;entryY=0.5;entryDx=0;entryDy=0;" edge="1" parent="1" target="wTYuQ1-PZF-Odj23AbDm-2">
          <mxGeometry width="50" height="50" relative="1" as="geometry">
            <mxPoint x="80" y="400" as="sourcePoint" />
            <mxPoint x="130" y="350" as="targetPoint" />
          </mxGeometry>
        </mxCell>
        <mxCell id="wTYuQ1-PZF-Odj23AbDm-7" value="" style="endArrow=classic;html=1;rounded=0;" edge="1" parent="1">
          <mxGeometry width="50" height="50" relative="1" as="geometry">
            <mxPoint x="260" y="400" as="sourcePoint" />
            <mxPoint x="300" y="360" as="targetPoint" />
          </mxGeometry>
        </mxCell>
        <mxCell id="wTYuQ1-PZF-Odj23AbDm-8" value="" style="endArrow=classic;html=1;rounded=0;" edge="1" parent="1">
          <mxGeometry width="50" height="50" relative="1" as="geometry">
            <mxPoint x="260" y="400" as="sourcePoint" />
            <mxPoint x="300" y="440" as="targetPoint" />
          </mxGeometry>
        </mxCell>
        <mxCell id="wTYuQ1-PZF-Odj23AbDm-10" value="Encounter Creation Page" style="html=1;whiteSpace=wrap;" vertex="1" parent="1">
          <mxGeometry x="300" y="330" width="120" height="60" as="geometry" />
        </mxCell>
        <mxCell id="wTYuQ1-PZF-Odj23AbDm-11" value="Prior Encounter Page" style="html=1;whiteSpace=wrap;" vertex="1" parent="1">
          <mxGeometry x="300" y="410" width="120" height="60" as="geometry" />
        </mxCell>
        <mxCell id="wTYuQ1-PZF-Odj23AbDm-12" value="" style="endArrow=classic;html=1;rounded=0;exitX=1.014;exitY=0.538;exitDx=0;exitDy=0;exitPerimeter=0;" edge="1" parent="1" source="wTYuQ1-PZF-Odj23AbDm-41">
          <mxGeometry width="50" height="50" relative="1" as="geometry">
            <mxPoint x="440" y="360" as="sourcePoint" />
            <mxPoint x="520" y="280" as="targetPoint" />
          </mxGeometry>
        </mxCell>
        <mxCell id="wTYuQ1-PZF-Odj23AbDm-14" value="Onprem SSMS SQL Server" style="shape=cylinder3;whiteSpace=wrap;html=1;boundedLbl=1;backgroundOutline=1;size=15;" vertex="1" parent="1">
          <mxGeometry x="520" y="240" width="80" height="80" as="geometry" />
        </mxCell>
        <mxCell id="wTYuQ1-PZF-Odj23AbDm-16" value="DB One" style="shape=cylinder3;whiteSpace=wrap;html=1;boundedLbl=1;backgroundOutline=1;size=15;" vertex="1" parent="1">
          <mxGeometry x="640" y="160" width="120" height="80" as="geometry" />
        </mxCell>
        <mxCell id="wTYuQ1-PZF-Odj23AbDm-22" value="" style="edgeStyle=orthogonalEdgeStyle;rounded=0;orthogonalLoop=1;jettySize=auto;html=1;" edge="1" parent="1" source="wTYuQ1-PZF-Odj23AbDm-17" target="wTYuQ1-PZF-Odj23AbDm-14">
          <mxGeometry relative="1" as="geometry" />
        </mxCell>
        <mxCell id="wTYuQ1-PZF-Odj23AbDm-17" value="DB Two" style="shape=cylinder3;whiteSpace=wrap;html=1;boundedLbl=1;backgroundOutline=1;size=15;" vertex="1" parent="1">
          <mxGeometry x="640" y="240" width="120" height="80" as="geometry" />
        </mxCell>
        <mxCell id="wTYuQ1-PZF-Odj23AbDm-18" value="DB Three" style="shape=cylinder3;whiteSpace=wrap;html=1;boundedLbl=1;backgroundOutline=1;size=15;" vertex="1" parent="1">
          <mxGeometry x="640" y="320" width="120" height="80" as="geometry" />
        </mxCell>
        <mxCell id="wTYuQ1-PZF-Odj23AbDm-20" value="" style="endArrow=classic;startArrow=classic;html=1;rounded=0;entryX=0;entryY=0.5;entryDx=0;entryDy=0;entryPerimeter=0;" edge="1" parent="1" target="wTYuQ1-PZF-Odj23AbDm-16">
          <mxGeometry width="50" height="50" relative="1" as="geometry">
            <mxPoint x="600" y="280" as="sourcePoint" />
            <mxPoint x="650" y="230" as="targetPoint" />
          </mxGeometry>
        </mxCell>
        <mxCell id="wTYuQ1-PZF-Odj23AbDm-21" value="" style="endArrow=classic;startArrow=classic;html=1;rounded=0;entryX=0;entryY=0.5;entryDx=0;entryDy=0;entryPerimeter=0;" edge="1" parent="1" target="wTYuQ1-PZF-Odj23AbDm-17">
          <mxGeometry width="50" height="50" relative="1" as="geometry">
            <mxPoint x="600" y="280" as="sourcePoint" />
            <mxPoint x="620" y="300" as="targetPoint" />
          </mxGeometry>
        </mxCell>
        <mxCell id="wTYuQ1-PZF-Odj23AbDm-26" value="" style="endArrow=classic;startArrow=classic;html=1;rounded=0;entryX=0;entryY=0.5;entryDx=0;entryDy=0;entryPerimeter=0;exitX=1;exitY=0.5;exitDx=0;exitDy=0;exitPerimeter=0;" edge="1" parent="1" source="wTYuQ1-PZF-Odj23AbDm-14" target="wTYuQ1-PZF-Odj23AbDm-18">
          <mxGeometry width="50" height="50" relative="1" as="geometry">
            <mxPoint x="550" y="425" as="sourcePoint" />
            <mxPoint x="600" y="375" as="targetPoint" />
          </mxGeometry>
        </mxCell>
        <mxCell id="wTYuQ1-PZF-Odj23AbDm-28" value="Online VM" style="html=1;dropTarget=0;whiteSpace=wrap;" vertex="1" parent="1">
          <mxGeometry x="530" y="520" width="180" height="90" as="geometry" />
        </mxCell>
        <mxCell id="wTYuQ1-PZF-Odj23AbDm-29" value="" style="shape=module;jettyWidth=8;jettyHeight=4;" vertex="1" parent="wTYuQ1-PZF-Odj23AbDm-28">
          <mxGeometry x="1" width="20" height="20" relative="1" as="geometry">
            <mxPoint x="-27" y="7" as="offset" />
          </mxGeometry>
        </mxCell>
        <mxCell id="wTYuQ1-PZF-Odj23AbDm-30" value="" style="endArrow=classic;startArrow=classic;html=1;rounded=0;exitX=0.563;exitY=0.003;exitDx=0;exitDy=0;exitPerimeter=0;" edge="1" parent="1" source="wTYuQ1-PZF-Odj23AbDm-43">
          <mxGeometry width="50" height="50" relative="1" as="geometry">
            <mxPoint x="560" y="490" as="sourcePoint" />
            <mxPoint x="560" y="320" as="targetPoint" />
          </mxGeometry>
        </mxCell>
        <mxCell id="wTYuQ1-PZF-Odj23AbDm-31" value="" style="endArrow=classic;startArrow=classic;html=1;rounded=0;exitX=1;exitY=0.5;exitDx=0;exitDy=0;entryX=0;entryY=0.5;entryDx=0;entryDy=0;entryPerimeter=0;" edge="1" parent="1" source="wTYuQ1-PZF-Odj23AbDm-11" target="wTYuQ1-PZF-Odj23AbDm-14">
          <mxGeometry width="50" height="50" relative="1" as="geometry">
            <mxPoint x="470" y="370" as="sourcePoint" />
            <mxPoint x="520" y="320" as="targetPoint" />
          </mxGeometry>
        </mxCell>
        <mxCell id="wTYuQ1-PZF-Odj23AbDm-32" value="Machine Learning Model" style="shape=parallelogram;perimeter=parallelogramPerimeter;whiteSpace=wrap;html=1;fixedSize=1;" vertex="1" parent="1">
          <mxGeometry x="420" y="630" width="120" height="80" as="geometry" />
        </mxCell>
        <mxCell id="wTYuQ1-PZF-Odj23AbDm-33" value="Subprocess Two" style="shape=parallelogram;perimeter=parallelogramPerimeter;whiteSpace=wrap;html=1;fixedSize=1;" vertex="1" parent="1">
          <mxGeometry x="545" y="630" width="120" height="80" as="geometry" />
        </mxCell>
        <mxCell id="wTYuQ1-PZF-Odj23AbDm-34" value="Subprocess Three" style="shape=parallelogram;perimeter=parallelogramPerimeter;whiteSpace=wrap;html=1;fixedSize=1;" vertex="1" parent="1">
          <mxGeometry x="660" y="630" width="120" height="80" as="geometry" />
        </mxCell>
        <mxCell id="wTYuQ1-PZF-Odj23AbDm-35" value="" style="endArrow=classic;startArrow=classic;html=1;rounded=0;entryX=0;entryY=1;entryDx=0;entryDy=0;" edge="1" parent="1" target="wTYuQ1-PZF-Odj23AbDm-28">
          <mxGeometry width="50" height="50" relative="1" as="geometry">
            <mxPoint x="485" y="630" as="sourcePoint" />
            <mxPoint x="535" y="580" as="targetPoint" />
          </mxGeometry>
        </mxCell>
        <mxCell id="wTYuQ1-PZF-Odj23AbDm-37" value="" style="endArrow=classic;startArrow=classic;html=1;rounded=0;entryX=0.5;entryY=1;entryDx=0;entryDy=0;exitX=0.5;exitY=0;exitDx=0;exitDy=0;" edge="1" parent="1" source="wTYuQ1-PZF-Odj23AbDm-33" target="wTYuQ1-PZF-Odj23AbDm-28">
          <mxGeometry width="50" height="50" relative="1" as="geometry">
            <mxPoint x="460" y="550" as="sourcePoint" />
            <mxPoint x="510" y="500" as="targetPoint" />
          </mxGeometry>
        </mxCell>
        <mxCell id="wTYuQ1-PZF-Odj23AbDm-38" value="" style="endArrow=classic;startArrow=classic;html=1;rounded=0;entryX=1;entryY=1;entryDx=0;entryDy=0;exitX=0.5;exitY=0;exitDx=0;exitDy=0;" edge="1" parent="1" source="wTYuQ1-PZF-Odj23AbDm-34" target="wTYuQ1-PZF-Odj23AbDm-28">
          <mxGeometry width="50" height="50" relative="1" as="geometry">
            <mxPoint x="460" y="550" as="sourcePoint" />
            <mxPoint x="510" y="500" as="targetPoint" />
          </mxGeometry>
        </mxCell>
        <mxCell id="wTYuQ1-PZF-Odj23AbDm-40" value="" style="endArrow=classic;html=1;rounded=0;entryX=1;entryY=0.5;entryDx=0;entryDy=0;" edge="1" parent="1" source="wTYuQ1-PZF-Odj23AbDm-28" target="wTYuQ1-PZF-Odj23AbDm-10">
          <mxGeometry width="50" height="50" relative="1" as="geometry">
            <mxPoint x="560" y="490" as="sourcePoint" />
            <mxPoint x="610" y="440" as="targetPoint" />
          </mxGeometry>
        </mxCell>
        <mxCell id="wTYuQ1-PZF-Odj23AbDm-41" value="Web App" style="shape=umlFrame;whiteSpace=wrap;html=1;pointerEvents=0;" vertex="1" parent="1">
          <mxGeometry x="120" y="220" width="300" height="260" as="geometry" />
        </mxCell>
        <mxCell id="wTYuQ1-PZF-Odj23AbDm-42" value="Database" style="shape=umlFrame;whiteSpace=wrap;html=1;pointerEvents=0;" vertex="1" parent="1">
          <mxGeometry x="510" y="150" width="300" height="260" as="geometry" />
        </mxCell>
        <mxCell id="wTYuQ1-PZF-Odj23AbDm-43" value="ML Model" style="shape=umlFrame;whiteSpace=wrap;html=1;pointerEvents=0;" vertex="1" parent="1">
          <mxGeometry x="390" y="520" width="400" height="260" as="geometry" />
        </mxCell>
        <mxCell id="wTYuQ1-PZF-Odj23AbDm-44" value="Data Gateway" style="text;html=1;align=center;verticalAlign=middle;whiteSpace=wrap;rounded=0;" vertex="1" parent="1">
          <mxGeometry x="425" y="280" width="60" height="30" as="geometry" />
        </mxCell>
        <mxCell id="wTYuQ1-PZF-Odj23AbDm-45" value="Data Gateway" style="text;html=1;align=center;verticalAlign=middle;whiteSpace=wrap;rounded=0;" vertex="1" parent="1">
          <mxGeometry x="620" y="470" width="60" height="30" as="geometry" />
        </mxCell>
        <mxCell id="wTYuQ1-PZF-Odj23AbDm-47" value="Data Gateway" style="text;html=1;align=center;verticalAlign=middle;whiteSpace=wrap;rounded=0;" vertex="1" parent="1">
          <mxGeometry x="460" y="450" width="60" height="30" as="geometry" />
        </mxCell>
      </root>
    </mxGraphModel>
  </diagram>
</mxfile>
